# Blender v2.75 (sub 0) OBJ File: 'AirBalloon.blend'
# www.blender.org
mtllib AirBalloon.mtl
o Cylinder
v -1.094187 3.502617 -0.418835
v -1.176359 3.502617 0.040750
v -1.862677 4.218001 0.265612
v -1.814314 4.218001 -0.473732
v -0.655474 2.181555 -0.110061
v -1.624425 4.218001 0.967185
v -0.842395 3.502617 -0.811990
v -2.522674 5.858007 1.053414
v -0.555240 2.181555 -0.358832
v -0.652878 2.181555 0.158132
v -1.076400 3.502617 0.496797
v -1.932703 5.858007 1.947589
v -1.486696 4.218001 -1.138289
v -2.725549 5.858007 0.001532
v -0.635235 2.070725 -0.411170
v -0.749409 2.070725 -0.127802
v -0.746452 2.070725 0.177688
v -1.135828 4.218001 1.524178
v -1.045455 5.858007 2.547927
v -0.459315 3.502617 -1.078861
v -0.367435 2.181555 -0.550308
v -2.236345 7.264026 1.581855
v -1.465945 7.264026 2.326231
v -0.421312 2.070725 -0.629275
v -0.547847 2.181555 0.404916
v -0.626814 2.070725 0.458793
v -0.809529 3.502617 0.879876
v -0.469326 7.264026 2.719126
v -0.929703 4.218001 -1.626886
v -2.510444 5.858007 -1.047917
v -2.663242 7.264026 0.599321
v -0.120651 2.181555 -0.655339
v -0.140207 2.070725 -0.748913
v -0.356371 2.181555 0.592721
v -0.408709 2.070725 0.672716
v -0.471271 4.218001 1.851794
v 0.003994 5.858007 2.763031
v 0.601783 7.264026 2.700723
v -0.003269 3.502617 -1.178819
v -1.467609 8.407813 1.502912
v -0.785935 8.407813 1.959114
v 0.018431 8.407813 2.119726
v 0.147541 2.181555 -0.657935
v 0.165283 2.070725 -0.751870
v -0.107600 2.181555 0.692955
v -0.125341 2.070725 0.786890
v -0.416373 3.502617 1.131668
v 0.823031 8.407813 1.960293
v -0.228131 4.218001 -1.865138
v -1.910106 5.858007 -1.935165
v -2.681644 7.264026 -0.471788
v -1.922813 8.407813 0.820570
v 0.396312 2.181555 -0.557701
v 0.448651 2.070725 -0.637696
v 0.160592 2.181555 0.690359
v 0.180149 2.070725 0.783933
v 0.268073 4.218001 1.900158
v 1.055875 5.858007 2.560155
v 1.584316 7.264026 2.273826
v 1.505373 8.407813 1.505090
v 0.456315 3.502617 -1.096648
v -0.431282 9.114426 0.580243
v -0.181584 9.114426 0.710095
v 0.098800 9.114426 0.734506
v 0.367182 9.114426 0.649762
v 0.587789 2.181555 -0.369896
v 0.666756 2.070725 -0.423773
v 0.407376 2.181555 0.585328
v 0.461253 2.070725 0.664295
v 0.043211 3.502617 1.213840
v 0.582704 9.114426 0.468763
v 0.511213 4.218001 -1.816774
v -1.015933 5.858007 -2.525134
v -2.288749 7.264026 -1.468407
v -2.082245 8.407813 0.015969
v -0.612281 9.114426 0.364721
v 0.849470 3.502617 -0.844856
v 0.692820 2.181555 -0.123112
v 0.786393 2.070725 -0.142668
v 0.595181 2.181555 0.393852
v 0.675177 2.070725 0.446190
v 0.499257 3.502617 1.113881
v 0.969645 4.218001 1.661905
v 1.950049 5.858007 1.970183
v 2.328691 7.264026 1.503425
v 1.961575 8.407813 0.823416
v 0.712555 9.114426 0.219064
v 0.019971 9.114426 0.017510
v 1.116341 3.502617 -0.461777
v 0.695416 2.181555 0.145081
v 0.789351 2.070725 0.162822
v 0.882337 3.502617 0.847009
v 1.175769 4.218001 -1.489157
v 0.035948 5.858007 -2.728009
v -1.544374 7.264026 -2.238806
v -1.921633 8.407813 -0.788397
v -0.697026 9.114426 0.096338
v 1.216300 3.502617 -0.005730
v 1.134129 3.502617 0.453855
v 1.526638 4.218001 1.173309
v 2.550386 5.858007 1.082937
v 2.721586 7.264026 0.506808
v 2.122186 8.407813 0.019050
v 0.736967 9.114426 -0.061319
v -0.672614 9.114426 -0.184045
v 1.664366 4.218001 -0.932164
v 1.854255 4.218001 0.508752
v 1.085397 5.858007 -2.512905
v -0.561840 7.264026 -2.665702
v -1.465431 8.407813 -1.470070
v -0.542763 9.114426 -0.433743
v 1.902618 4.218001 -0.230592
v 2.765491 5.858007 0.033488
v 2.703183 7.264026 -0.564301
v 1.962754 8.407813 -0.785550
v 0.652222 9.114426 -0.329701
v -0.327240 9.114426 -0.614742
v 1.972644 5.858007 -1.912568
v 2.562615 5.858007 -1.018393
v 0.509268 7.264026 -2.684104
v -0.783089 8.407813 -1.925273
v -0.058858 9.114426 -0.699486
v 2.276287 7.264026 -1.546834
v 1.507551 8.407813 -1.467892
v 0.471223 9.114426 -0.545223
v 0.021511 8.407813 -2.084705
v 1.505886 7.264026 -2.291210
v 0.825877 8.407813 -1.924094
v 0.221525 9.114426 -0.675075
v 0.019971 4.152148 0.017510
v -0.088430 4.152148 -0.875815
v 0.261682 4.152148 -0.849298
v 0.574996 4.152148 -0.690817
v -0.422039 4.152148 -0.766332
v 0.803812 4.152148 -0.424500
v -0.688356 4.152148 -0.537516
v 0.913296 4.152148 -0.090890
v -0.846837 4.152148 -0.224202
v 0.886779 4.152148 0.259222
v -0.873354 4.152148 0.125911
v 0.728298 4.152148 0.572536
v -0.763871 4.152148 0.459520
v 0.461981 4.152148 0.801352
v -0.535055 4.152148 0.725837
v 0.128371 4.152148 0.910835
v -0.221741 4.152148 0.884318
v -0.436479 1.391697 0.438547
v -0.436479 1.391697 -0.438547
v -0.331146 0.828651 -0.333213
v -0.331146 0.828651 0.333213
v 0.440614 1.391697 0.438547
v 0.335281 0.828651 0.333213
v -0.326692 1.404315 0.328760
v -0.326692 1.404315 -0.328760
v 0.440614 1.391697 -0.438547
v 0.335281 0.828651 -0.333213
v 0.330827 1.404315 0.328760
v 0.330827 1.404315 -0.328760
v -0.326692 1.049445 0.328760
v -0.326692 1.049445 -0.328760
v 0.330827 1.049445 0.328760
v 0.330827 1.049445 -0.328760
vt 0.911096 0.932654
vt 0.911096 0.887659
vt 0.956091 0.887659
vt 0.956091 0.932654
vt 0.081250 0.938281
vt 0.081250 0.921094
vt 0.098437 0.921094
vt 0.098437 0.938281
vt 0.000000 0.000000
vt 1.000000 0.000000
vt 1.000000 1.000000
vt 0.545764 0.120328
vt 0.548045 0.120292
vt 0.547684 0.119263
vt 0.546109 0.119276
vt 0.545956 0.114524
vt 0.547757 0.114525
vt 0.547563 0.114577
vt 0.546147 0.114576
vt 0.545701 0.120290
vt 0.547637 0.119277
vt 0.546162 0.116426
vt 0.547630 0.116429
vt 0.547633 0.117897
vt 0.546159 0.117899
vt 0.545949 0.114533
vt 0.546191 0.114578
vt 0.547895 0.120775
vt 0.545862 0.120795
vt 0.545888 0.120304
vt 0.547875 0.120291
vt 0.546177 0.116493
vt 0.547614 0.116496
vn -0.715600 -0.694200 -0.077900
vn -0.905300 -0.355100 -0.233100
vn -0.690900 -0.694200 0.201900
vn -0.631300 -0.694200 -0.345800
vn -0.887400 -0.454600 0.076500
vn -0.925600 -0.355100 0.131100
vn -0.790600 -0.454600 0.410300
vn -0.747200 -0.355100 -0.561800
vn -0.708100 0.645900 -0.285300
vn -0.763400 0.645900 0.007400
vn -0.561100 -0.694200 0.450900
vn -0.573400 -0.454600 0.681600
vn -0.450900 -0.694200 -0.561100
vn -0.545000 0.645900 -0.534600
vn -0.702500 0.645900 0.299000
vn -0.475300 -0.355100 -0.805000
vn -0.849200 -0.454600 -0.268900
vn -0.955300 0.000000 0.295700
vn -0.769400 0.000000 0.638800
vn -0.466400 0.000000 0.884600
vn -0.299000 0.645900 -0.702500
vn -0.534600 0.645900 0.545000
vn -0.805000 -0.355100 0.475300
vn -0.345800 -0.694200 0.631300
vn -0.268900 -0.454600 0.849200
vn -0.092400 0.000000 0.995700
vn -0.201900 -0.694200 -0.690900
vn -0.681600 -0.454600 -0.573400
vn -0.995700 0.000000 -0.092400
vn -0.773000 0.484500 0.409600
vn -0.557400 0.484500 0.674200
vn -0.257000 0.484500 0.836200
vn -0.007400 0.645900 -0.763400
vn -0.285300 0.645900 0.708100
vn -0.561800 -0.355100 0.747200
vn 0.082600 0.484500 0.870900
vn -0.131100 -0.355100 -0.925600
vn 0.285300 0.645900 -0.708100
vn 0.007400 0.645900 0.763400
vn -0.233100 -0.355100 0.905300
vn -0.077900 -0.694200 0.715600
vn 0.076500 -0.454600 0.887400
vn 0.295700 0.000000 0.955300
vn 0.409600 0.484500 0.773000
vn 0.077900 -0.694200 -0.715600
vn -0.410300 -0.454600 -0.790600
vn -0.884600 -0.000000 -0.466400
vn -0.870900 0.484500 0.082600
vn -0.377100 0.886800 0.267200
vn -0.246100 0.886800 0.391100
vn -0.077700 0.886800 0.455600
vn 0.102500 0.886800 0.450600
vn 0.233100 -0.355100 -0.905300
vn 0.534600 0.645900 -0.545000
vn 0.299000 0.645900 0.702500
vn 0.131100 -0.355100 0.925600
vn 0.267200 0.886800 0.377100
vn 0.561800 -0.355100 -0.747200
vn 0.702500 0.645900 -0.299000
vn 0.545000 0.645900 0.534600
vn 0.475300 -0.355100 0.805000
vn 0.201900 -0.694200 0.690900
vn 0.410300 -0.454600 0.790600
vn 0.638800 -0.000000 0.769400
vn 0.674200 0.484500 0.557400
vn 0.391100 0.886800 0.246100
vn 0.345800 -0.694200 -0.631300
vn -0.076500 -0.454600 -0.887400
vn -0.638800 0.000000 -0.769400
vn -0.836200 0.484500 -0.257000
vn -0.450600 0.886800 0.102500
vn 0.000000 1.000000 0.000000
vn 0.805000 -0.355100 -0.475300
vn 0.763400 0.645900 -0.007400
vn 0.708100 0.645900 0.285300
vn 0.747200 -0.355100 0.561800
vn 0.561100 -0.694200 -0.450900
vn 0.925600 -0.355100 -0.131100
vn 0.905300 -0.355100 0.233100
vn 0.450900 -0.694200 0.561100
vn 0.681600 -0.454600 0.573400
vn 0.884600 0.000000 0.466400
vn 0.836200 0.484500 0.257000
vn 0.455600 0.886800 0.077700
vn 0.268900 -0.454600 -0.849200
vn -0.295700 0.000000 -0.955300
vn -0.674200 0.484500 -0.557400
vn -0.455600 0.886800 -0.077700
vn 0.690900 -0.694200 -0.201900
vn 0.631300 -0.694200 0.345800
vn 0.573400 -0.454600 -0.681600
vn 0.715600 -0.694200 0.077900
vn 0.849200 -0.454600 0.268900
vn 0.995700 -0.000000 0.092400
vn 0.870900 0.484500 -0.082600
vn 0.450600 0.886800 -0.102500
vn 0.092400 -0.000000 -0.995700
vn -0.409600 0.484500 -0.773000
vn -0.391100 0.886800 -0.246100
vn 0.790600 -0.454600 -0.410300
vn 0.887400 -0.454600 -0.076500
vn -0.267200 0.886800 -0.377100
vn 0.466400 0.000000 -0.884600
vn 0.955300 -0.000000 -0.295700
vn 0.773000 0.484500 -0.409600
vn 0.377100 0.886800 -0.267200
vn -0.082600 0.484500 -0.870900
vn -0.102500 0.886800 -0.450600
vn 0.769400 0.000000 -0.638800
vn 0.077700 0.886800 -0.455600
vn 0.257000 0.484500 -0.836200
vn 0.557400 0.484500 -0.674200
vn 0.246100 0.886800 -0.391100
vn 0.000000 -1.000000 0.000000
vn -0.982900 -0.183900 0.000000
vn 0.000000 -0.183900 0.982900
vn -0.114200 0.993500 0.000000
vn 0.000000 -0.183900 -0.982900
vn 0.982900 -0.183900 0.000000
vn 0.000000 0.993500 0.114200
vn 0.000000 0.993500 -0.114200
vn 1.000000 0.000000 0.000000
vn 0.114200 0.993500 0.000000
vn 0.000000 0.000000 -1.000000
vn 0.000000 0.000000 1.000000
vn -1.000000 0.000000 0.000000
usemtl Material
s off
f 2/1/1 3/2/1 4/3/1 1/4/1
f 2/1/2 1/2/2 9/3/2 5/4/2
f 3/5/3 2/6/3 11/7/3 6/8/3
f 1/7/4 4/8/4 13/5/4 7/6/4
f 3/1/5 8/2/5 14/3/5 4/4/5
f 5/5/6 10/6/6 11/7/6 2/8/6
f 6/7/7 12/8/7 8/5/7 3/6/7
f 1/7/8 7/8/8 21/5/8 9/6/8
f 5/4/9 9/3/9 15/3/9 16/4/9
f 10/6/10 5/5/10 16/5/10 17/6/10
f 6/3/11 11/4/11 27/1/11 18/2/11
f 12/3/12 6/4/12 18/1/12 19/2/12
f 7/1/13 13/2/13 29/3/13 20/4/13
f 9/6/14 21/5/14 24/5/14 15/6/14
f 25/4/15 10/3/15 17/3/15 26/4/15
f 7/1/16 20/2/16 32/3/16 21/4/16
f 30/5/17 13/6/17 4/7/17 14/8/17
f 31/3/18 14/4/18 8/1/18 22/2/18
f 22/5/19 8/6/19 12/7/19 23/8/19
f 23/3/20 12/4/20 19/1/20 28/2/20
f 21/4/21 32/3/21 33/3/21 24/4/21
f 34/6/22 25/5/22 26/5/22 35/6/22
f 27/1/23 11/2/23 10/3/23 25/4/23
f 18/5/24 27/6/24 47/7/24 36/8/24
f 19/5/25 18/6/25 36/7/25 37/8/25
f 28/5/26 19/6/26 37/7/26 38/8/26
f 20/7/27 29/8/27 49/5/27 39/6/27
f 13/1/28 30/2/28 50/3/28 29/4/28
f 14/7/29 31/8/29 51/5/29 30/6/29
f 22/1/30 40/2/30 52/3/30 31/4/30
f 23/7/31 41/8/31 40/5/31 22/6/31
f 28/1/32 42/2/32 41/3/32 23/4/32
f 32/6/33 43/5/33 44/5/33 33/6/33
f 45/4/34 34/3/34 35/3/34 46/4/34
f 25/5/35 34/6/35 47/7/35 27/8/35
f 38/7/36 48/8/36 42/5/36 28/6/36
f 20/7/37 39/8/37 43/5/37 32/6/37
f 43/4/38 53/3/38 54/3/38 44/4/38
f 55/6/39 45/5/39 46/5/39 56/6/39
f 34/3/40 45/4/40 70/1/40 47/2/40
f 36/3/41 47/4/41 70/1/41 57/2/41
f 37/3/42 36/4/42 57/1/42 58/2/42
f 38/3/43 37/4/43 58/1/43 59/2/43
f 48/3/44 38/4/44 59/1/44 60/2/44
f 39/1/45 49/2/45 72/3/45 61/4/45
f 29/7/46 50/8/46 73/5/46 49/6/46
f 30/1/47 51/2/47 74/3/47 50/4/47
f 31/7/48 52/8/48 75/5/48 51/6/48
f 40/1/49 62/2/49 76/3/49 52/4/49
f 41/7/50 63/8/50 62/5/50 40/6/50
f 42/1/51 64/2/51 63/3/51 41/4/51
f 48/7/52 65/8/52 64/5/52 42/6/52
f 39/1/53 61/2/53 53/3/53 43/4/53
f 53/6/54 66/5/54 67/5/54 54/6/54
f 68/4/55 55/3/55 56/3/55 69/4/55
f 45/5/56 55/6/56 82/7/56 70/8/56
f 60/1/57 71/2/57 65/3/57 48/4/57
f 61/7/58 77/8/58 66/5/58 53/6/58
f 66/4/59 78/3/59 79/3/59 67/4/59
f 80/6/60 68/5/60 69/5/60 81/6/60
f 55/3/61 68/4/61 92/1/61 82/2/61
f 57/5/62 70/6/62 82/7/62 83/8/62
f 58/5/63 57/6/63 83/7/63 84/8/63
f 59/5/64 58/6/64 84/7/64 85/8/64
f 60/5/65 59/6/65 85/7/65 86/8/65
f 71/5/66 60/6/66 86/7/66 87/8/66
f 61/7/67 72/8/67 93/5/67 77/6/67
f 49/1/68 73/2/68 94/3/68 72/4/68
f 50/7/69 74/8/69 95/5/69 73/6/69
f 51/1/70 75/2/70 96/3/70 74/4/70
f 52/7/71 76/8/71 97/5/71 75/6/71
f 88/6/72 76/7/72 62/8/72
f 88/6/72 62/7/72 63/8/72
f 88/6/72 63/7/72 64/8/72
f 88/6/72 64/7/72 65/8/72
f 88/6/72 65/7/72 71/8/72
f 77/1/73 89/2/73 78/3/73 66/4/73
f 78/6/74 90/5/74 91/5/74 79/6/74
f 90/4/75 80/3/75 81/3/75 91/4/75
f 68/5/76 80/6/76 99/7/76 92/8/76
f 88/6/72 71/7/72 87/8/72
f 88/6/72 97/7/72 76/8/72
f 77/1/77 93/2/77 106/3/77 89/4/77
f 89/7/78 98/8/78 90/5/78 78/6/78
f 80/3/79 90/4/79 98/1/79 99/2/79
f 92/1/80 100/2/80 83/3/80 82/4/80
f 84/3/81 83/4/81 100/1/81 101/2/81
f 85/3/82 84/4/82 101/1/82 102/2/82
f 86/3/83 85/4/83 102/1/83 103/2/83
f 87/3/84 86/4/84 103/1/84 104/2/84
f 88/6/72 87/7/72 104/8/72
f 72/7/85 94/8/85 108/5/85 93/6/85
f 73/1/86 95/2/86 109/3/86 94/4/86
f 74/7/87 96/8/87 110/5/87 95/6/87
f 75/1/88 97/2/88 105/3/88 96/4/88
f 88/6/72 105/7/72 97/8/72
f 89/7/89 106/8/89 112/5/89 98/6/89
f 99/7/90 107/8/90 100/5/90 92/6/90
f 88/6/72 111/7/72 105/8/72
f 93/1/91 108/2/91 118/3/91 106/4/91
f 98/1/92 112/2/92 107/3/92 99/4/92
f 107/7/93 113/8/93 101/5/93 100/6/93
f 102/5/94 101/6/94 113/7/94 114/8/94
f 103/5/95 102/6/95 114/7/95 115/8/95
f 104/5/96 103/6/96 115/7/96 116/8/96
f 94/7/97 109/8/97 120/5/97 108/6/97
f 95/1/98 110/2/98 121/3/98 109/4/98
f 96/7/99 105/8/99 111/5/99 110/6/99
f 88/6/72 117/7/72 111/8/72
f 106/7/100 118/8/100 119/5/100 112/6/100
f 112/1/101 119/2/101 113/3/101 107/4/101
f 88/6/72 122/7/72 117/8/72
f 117/3/102 121/4/102 110/1/102 111/2/102
f 108/1/103 120/2/103 127/3/103 118/4/103
f 119/1/104 123/2/104 114/3/104 113/4/104
f 115/3/105 114/4/105 123/1/105 124/2/105
f 116/3/106 115/4/106 124/1/106 125/2/106
f 109/7/107 121/8/107 126/5/107 120/6/107
f 122/5/108 126/6/108 121/7/108 117/8/108
f 118/7/109 127/8/109 123/5/109 119/6/109
f 126/1/110 122/2/110 129/3/110 128/4/110
f 120/1/111 126/2/111 128/3/111 127/4/111
f 127/7/112 128/8/112 124/5/112 123/6/112
f 125/5/113 124/6/113 128/7/113 129/8/113
f 130/9/114 131/10/114 132/11/114
f 130/9/114 132/10/114 133/11/114
f 130/9/114 134/10/114 131/11/114
f 130/9/114 133/10/114 135/11/114
f 130/9/114 136/10/114 134/11/114
f 130/9/114 135/10/114 137/11/114
f 130/9/114 138/10/114 136/11/114
f 130/9/114 137/10/114 139/11/114
f 130/9/114 140/10/114 138/11/114
f 130/9/114 139/10/114 141/11/114
f 130/9/114 142/10/114 140/11/114
f 130/9/114 141/10/114 143/11/114
f 130/9/114 144/10/114 142/11/114
f 130/9/114 143/10/114 145/11/114
f 130/9/114 146/10/114 144/11/114
f 130/9/114 145/10/114 146/11/114
f 147/12/115 148/13/115 149/14/115 150/15/115
f 151/12/116 147/13/116 150/14/116 152/15/116
f 148/16/117 147/17/117 153/18/117 154/19/117
f 148/20/118 155/13/118 156/21/118 149/15/118
f 150/22/114 149/23/114 156/24/114 152/25/114
f 155/20/119 151/13/119 152/21/119 156/15/119
f 147/26/120 151/17/120 157/18/120 153/19/120
f 155/16/121 148/17/121 154/18/121 158/27/121
f 154/28/122 153/29/122 159/30/122 160/31/122
f 151/16/123 155/17/123 158/18/123 157/27/123
f 153/28/124 157/29/124 161/30/124 159/31/124
f 158/28/125 154/29/125 160/30/125 162/31/125
f 161/32/72 162/33/72 160/24/72 159/25/72
f 157/28/126 158/29/126 162/30/126 161/31/126
