# Blender v2.75 (sub 0) OBJ File: 'Cloud3.blend'
# www.blender.org
mtllib Cloud3.mtl
o Icosphere_Icosphere.002
v -2.729172 -0.310685 -0.652183
v -2.572656 -0.105497 -0.212615
v -3.112779 -0.629368 -0.106138
v -3.246887 -0.350390 -0.777750
v -3.012727 0.129372 -0.758549
v -2.939977 0.059518 0.099901
v -3.614208 -0.185375 -0.465234
v -3.143017 0.358168 -0.293740
v -3.457691 0.019814 -0.025667
v 1.816511 0.672605 1.807928
v 2.090634 -1.407511 0.421785
v 3.410897 0.576531 1.389216
v 1.573208 2.061309 0.631211
v 0.734476 -0.570932 0.543666
v 3.870068 -0.535418 -0.137227
v 0.220712 0.934293 0.461557
v 4.210850 1.486375 -0.074463
v 0.899447 -1.190443 -0.528151
v 4.421727 0.696247 -1.353837
v 2.403259 -1.080955 -1.888449
v -0.050390 1.506957 -0.309127
v 3.523374 2.073785 -1.009820
v -0.934494 -1.355011 -1.268479
v -0.482827 0.481438 0.873042
v 2.000237 1.922622 -1.811005
v 0.474355 -0.806209 -1.729295
v -1.083869 -1.094467 0.770701
v 1.859791 0.941049 -2.495113
v -1.475693 0.875460 -0.149175
v 0.079217 1.016264 -1.287880
v 1.162933 -0.153266 -2.123515
v -2.086067 -0.305247 -0.654989
v -0.839598 0.204506 -1.911577
v 0.008609 -0.186446 -0.411134
v 1.629682 0.290996 0.217855
v 1.579842 0.554752 -0.454597
vn 0.702100 -0.707500 0.080300
vn 0.167500 -0.898200 -0.406500
vn 0.790500 0.396600 -0.466600
vn 0.504800 -0.361100 0.784000
vn 0.240700 -0.078800 -0.967400
vn -0.551400 -0.803700 -0.223700
vn 0.635400 0.748400 -0.190300
vn 0.581300 0.764000 0.279800
vn -0.212600 -0.230700 0.949500
vn -0.539000 0.294600 -0.789100
vn -0.748700 -0.457300 0.480000
vn -0.579300 0.655200 -0.484900
vn -0.215000 0.721500 0.658200
vn -0.748200 0.662100 -0.042600
vn 0.185800 -0.527800 0.828800
vn 0.229000 0.652300 0.722500
vn -0.273900 -0.558100 0.783300
vn 0.495600 -0.624300 0.603800
vn -0.507400 0.503600 0.699200
vn 0.321900 0.715100 0.620500
vn -0.457500 -0.798600 0.391200
vn -0.651300 -0.182100 0.736600
vn 0.936300 -0.082100 0.341500
vn 0.420900 -0.904300 -0.070900
vn -0.549200 0.566600 0.614200
vn 0.905000 -0.278800 0.321300
vn 0.287700 0.892000 0.348700
vn -0.061900 -0.987100 -0.147900
vn -0.117300 -0.867500 0.483400
vn 0.403700 0.186600 0.895600
vn 0.668800 -0.652200 -0.357000
vn -0.133900 0.772300 0.621000
vn -0.268400 0.958000 -0.101300
vn 0.790300 0.570900 -0.222300
vn -0.063300 0.995700 -0.067600
vn -0.156700 -0.955400 -0.250200
vn 0.290200 -0.946300 0.142200
vn 0.229900 -0.900400 -0.369400
vn 0.158000 -0.123900 0.979600
vn 0.387700 -0.167700 -0.906400
vn -0.278900 0.773600 0.569000
vn -0.478400 0.758000 -0.443400
vn 0.380400 0.449900 -0.808000
vn -0.132500 -0.406200 -0.904100
vn -0.658900 -0.750700 0.047600
vn -0.156200 -0.368400 -0.916400
vn -0.661300 0.205400 0.721500
vn 0.393800 0.487000 -0.779600
vn -0.041600 -0.297400 -0.953900
vn -0.403200 0.795500 -0.452200
vn -0.451500 0.552800 -0.700400
vn -0.163900 -0.377400 -0.911400
vn -0.629400 -0.263200 -0.731100
vn -0.773900 0.135000 0.618800
vn -0.557500 0.074200 -0.826900
vn -0.401000 0.798600 -0.448800
vn 0.021000 0.594100 -0.804200
vn -0.692000 0.555300 -0.461200
vn -0.953400 -0.051100 0.297400
vn -0.816600 -0.250400 0.520000
vn 0.435300 0.789200 0.433300
vn -0.992700 -0.027500 -0.117700
vn -0.704100 -0.656300 0.271000
vn 0.226300 0.129900 0.965400
vn 0.502400 0.816900 0.283200
vn -0.952400 -0.141100 -0.270200
vn 0.448300 0.821400 -0.352500
vn -0.744100 -0.666100 0.050300
vn 0.701800 -0.564700 0.434400
vn 0.914900 -0.348100 -0.204300
vn -0.552100 0.081300 -0.829800
vn 0.478600 0.758900 -0.441500
vn 0.857500 -0.317300 -0.405000
vn 0.716900 -0.688000 0.112800
usemtl Material.001
s off
f 1//1 2//1 3//1
f 1//2 3//2 4//2
f 1//3 5//3 2//3
f 2//4 6//4 3//4
f 1//5 4//5 5//5
f 4//6 3//6 7//6
f 2//7 5//7 8//7
f 2//8 8//8 6//8
f 3//9 6//9 9//9
f 5//10 4//10 7//10
f 7//11 3//11 9//11
f 5//12 7//12 8//12
f 6//13 8//13 9//13
f 8//14 7//14 9//14
f 10//15 11//15 12//15
f 10//16 12//16 13//16
f 11//17 10//17 14//17
f 12//18 11//18 15//18
f 10//19 13//19 16//19
f 12//20 17//20 13//20
f 11//21 14//21 18//21
f 10//22 16//22 14//22
f 12//23 15//23 19//23
f 15//24 11//24 20//24
f 16//25 13//25 21//25
f 17//26 12//26 19//26
f 13//27 17//27 22//27
f 11//28 18//28 20//28
f 14//29 23//29 18//29
f 24//30 14//30 16//30
f 15//31 20//31 19//31
f 24//32 16//32 21//32
f 21//33 13//33 25//33
f 17//34 19//34 22//34
f 13//35 22//35 25//35
f 18//36 26//36 20//36
f 23//37 14//37 27//37
f 18//38 23//38 26//38
f 27//39 14//39 24//39
f 19//40 20//40 28//40
f 29//41 24//41 21//41
f 21//42 25//42 30//42
f 25//43 22//43 19//43
f 20//44 26//44 31//44
f 23//45 27//45 32//45
f 26//46 23//46 33//46
f 27//47 24//47 29//47
f 25//48 19//48 28//48
f 20//49 31//49 28//49
f 29//50 21//50 30//50
f 30//51 25//51 28//51
f 26//52 33//52 31//52
f 23//53 32//53 33//53
f 32//54 27//54 29//54
f 31//55 30//55 28//55
f 30//56 33//56 29//56
f 31//57 33//57 30//57
f 32//58 29//58 33//58
f 16//59 21//59 34//59
f 14//60 16//60 34//60
f 16//61 35//61 21//61
f 34//62 21//62 30//62
f 18//63 14//63 34//63
f 14//64 35//64 16//64
f 21//65 35//65 36//65
f 34//66 30//66 26//66
f 21//67 36//67 30//67
f 18//68 34//68 26//68
f 35//69 14//69 18//69
f 35//70 18//70 36//70
f 26//71 30//71 31//71
f 36//72 31//72 30//72
f 18//73 26//73 36//73
f 26//74 31//74 36//74
