# Blender v2.75 (sub 0) OBJ File: 'Cloud8.blend'
# www.blender.org
mtllib Cloud8.mtl
o Sphere.002_Sphere.006
v -2.419687 0.487380 -0.101582
v -2.613521 0.568398 0.001594
v -2.552809 0.377588 -0.220294
v -2.623970 0.551179 -0.114730
v -2.652582 0.348015 -0.103237
v -2.426299 0.413798 -0.212485
v -1.539591 1.128902 0.004986
v -1.720096 0.706600 -0.235253
v -1.489208 0.214840 -0.306008
v -1.042651 0.569594 -0.601967
v -0.904843 -0.084887 -0.500317
v -0.585100 1.086833 -0.133749
v -0.335251 0.559706 -0.395017
v -0.470694 0.077083 -0.473034
v -0.493296 1.123585 0.180530
v -0.203997 0.601071 0.003566
v -0.505141 0.138453 -0.023297
v -1.027889 1.172324 0.678543
v -1.093733 0.694144 0.732269
v -0.959640 0.171495 0.282350
v -1.015110 1.346653 0.003249
v -1.553289 1.178586 0.486735
v -1.758164 0.722596 0.486839
v -1.487099 0.172020 0.174180
v 0.655264 1.874469 0.685724
v 0.271907 1.193741 0.045288
v 0.594922 0.351718 0.158978
v 1.488497 -0.099713 0.508979
v 1.613817 1.870957 0.513674
v 1.426094 1.046761 -0.135450
v 1.483765 0.256895 0.108251
v 2.682230 1.886828 1.050394
v 3.096110 1.128259 0.586327
v 2.551434 0.272536 0.554409
v 2.951042 1.886902 1.761567
v 3.453268 1.154805 1.489208
v 2.719812 0.307609 1.179142
v 1.872697 1.875104 2.339840
v 1.724730 1.088495 2.323922
v 1.829723 0.273786 1.610200
v 1.815418 2.153940 1.122283
v 0.682743 1.853948 1.681901
v 0.226536 1.114585 1.568400
v 0.699407 0.279906 1.046572
vn -0.264500 0.452100 -0.851900
vn 0.987400 -0.142900 -0.067500
vn 0.768000 -0.072200 0.636400
vn 0.087100 -0.491300 0.866600
vn -0.275600 0.961200 0.007900
vn -0.303700 -0.938200 0.166200
vn -0.449300 0.756500 -0.475200
vn -0.489800 -0.105400 -0.865400
vn -0.251700 0.600200 -0.759200
vn 0.280900 0.075800 -0.956700
vn -0.024100 0.434800 -0.900200
vn 0.823800 -0.523700 -0.216900
vn 0.790600 0.537200 -0.293800
vn 0.554300 -0.403100 0.728200
vn 0.681000 -0.011500 0.732200
vn -0.283300 -0.666400 0.689700
vn -0.337400 0.150900 0.929200
vn 0.447900 0.863500 -0.231800
vn 0.337000 -0.929100 0.152600
vn 0.310300 0.919000 0.243100
vn 0.145200 -0.937200 0.317200
vn -0.078900 0.965600 0.247800
vn -0.063800 -0.949700 0.306600
vn -0.910100 0.408900 -0.068000
vn -0.905000 -0.423800 -0.038300
vn -0.381600 0.918300 -0.105600
vn -0.475000 -0.876700 -0.076100
vn -0.176200 -0.197800 -0.964300
vn -0.134700 0.631800 -0.763300
vn 0.396100 -0.218900 -0.891700
vn 0.345000 0.619600 -0.705100
vn 0.773600 -0.563800 -0.289400
vn 0.740000 0.611700 -0.279800
vn 0.370800 -0.585000 0.721300
vn 0.470800 -0.106300 0.875800
vn -0.354200 -0.641600 0.680300
vn -0.483600 0.073300 0.872200
vn -0.068800 0.913100 -0.401800
vn -0.116900 -0.742600 -0.659500
vn 0.223900 0.853300 -0.470900
vn 0.278100 -0.715900 -0.640400
vn 0.284600 0.952600 -0.107700
vn 0.331700 -0.942700 -0.036500
vn 0.105900 0.970400 0.217200
vn 0.166800 -0.948300 0.270000
vn -0.142800 0.963300 0.227300
vn -0.188000 -0.910900 0.367200
vn -0.852900 0.521000 0.034300
vn -0.882200 -0.468200 -0.050600
vn -0.243600 0.969500 0.026700
vn -0.444500 -0.895500 -0.020100
vn -0.282100 -0.791600 0.542000
vn -0.408900 -0.223500 -0.884800
vn -0.301200 0.565500 -0.767800
vn 0.110400 -0.129800 -0.985400
vn 0.233900 0.592300 -0.771100
vn 0.951900 -0.285200 0.111800
vn 0.788000 0.529300 -0.314400
vn 0.453500 -0.511800 0.729700
vn 0.636700 0.093300 0.765500
vn -0.168500 -0.548200 0.819200
vn -0.336800 0.151500 0.929300
vn -0.905900 0.419700 -0.057100
vn -0.906500 -0.420800 -0.033500
vn -0.086200 -0.299500 -0.950200
vn -0.024800 0.692400 -0.721100
vn 0.376600 -0.247900 -0.892600
vn 0.310500 0.543500 -0.779900
vn 0.830700 -0.521500 -0.194600
vn 0.741500 0.594700 -0.310800
vn 0.371600 -0.584200 0.721500
vn 0.435700 -0.035700 0.899400
vn -0.349000 -0.630900 0.692900
vn -0.444000 0.138100 0.885300
vn -0.871200 0.491000 -0.000400
vn -0.934200 -0.347300 0.081900
usemtl Material
s off
f 1//1 5//1 2//1
f 2//2 5//2 4//2
f 4//3 5//3 3//3
f 4//4 3//4 6//4
f 3//5 5//5 6//5
f 2//6 4//6 1//6
f 6//7 5//7 1//7
f 9//8 8//8 10//8
f 7//9 21//9 10//9
f 10//10 13//10 14//10
f 21//11 12//11 13//11
f 13//12 16//12 17//12
f 12//13 15//13 16//13
f 17//14 16//14 19//14
f 15//15 18//15 19//15
f 20//16 19//16 23//16
f 19//17 18//17 22//17
f 12//18 21//18 15//18
f 11//19 14//19 17//19
f 15//20 21//20 18//20
f 11//21 17//21 20//21
f 18//22 21//22 22//22
f 11//23 20//23 24//23
f 23//24 22//24 7//24
f 24//25 23//25 8//25
f 22//26 21//26 7//26
f 11//27 24//27 9//27
f 27//28 26//28 30//28
f 25//29 29//29 30//29
f 30//30 33//30 34//30
f 29//31 32//31 33//31
f 33//32 36//32 37//32
f 32//33 35//33 36//33
f 37//34 36//34 39//34
f 35//35 38//35 39//35
f 40//36 39//36 43//36
f 39//37 38//37 42//37
f 25//38 41//38 29//38
f 28//39 27//39 31//39
f 29//40 41//40 32//40
f 28//41 31//41 34//41
f 32//42 41//42 35//42
f 28//43 34//43 37//43
f 35//44 41//44 38//44
f 28//45 37//45 40//45
f 38//46 41//46 42//46
f 28//47 40//47 44//47
f 43//48 42//48 25//48
f 44//49 43//49 26//49
f 42//50 41//50 25//50
f 28//51 44//51 27//51
f 1//52 4//52 6//52
f 11//53 9//53 10//53
f 8//54 7//54 10//54
f 11//55 10//55 14//55
f 10//56 21//56 13//56
f 14//57 13//57 17//57
f 13//58 12//58 16//58
f 20//59 17//59 19//59
f 16//60 15//60 19//60
f 24//61 20//61 23//61
f 23//62 19//62 22//62
f 8//63 23//63 7//63
f 9//64 24//64 8//64
f 31//65 27//65 30//65
f 26//66 25//66 30//66
f 31//67 30//67 34//67
f 30//68 29//68 33//68
f 34//69 33//69 37//69
f 33//70 32//70 36//70
f 40//71 37//71 39//71
f 36//72 35//72 39//72
f 44//73 40//73 43//73
f 43//74 39//74 42//74
f 26//75 43//75 25//75
f 27//76 44//76 26//76
