# Blender v2.75 (sub 0) OBJ File: 'Cloud4.blend'
# www.blender.org
mtllib Cloud4.mtl
o Cube
v 0.325552 -0.831543 0.568622
v 0.279614 -0.803804 -0.636928
v 0.997309 -0.062413 -0.038419
v 0.286163 0.352156 1.057732
v -2.527386 -1.656070 -1.359327
v 0.194925 0.421951 -1.075381
v -2.428602 -1.695418 1.268921
v -1.170157 2.100498 0.001016
v -2.400458 0.852650 -2.140060
v -2.240620 0.788983 2.112571
v -4.736454 -1.962551 0.035389
v -4.719046 -0.387777 -2.071485
v -4.559206 -0.451444 2.181146
v -4.432278 2.057275 1.400414
v -4.531062 2.096623 -1.227835
v -5.974812 0.356741 0.116657
v 2.001425 -0.243532 0.146199
v 2.173760 -0.177106 0.083578
v 2.022921 0.040573 0.242675
v 1.696621 -0.334130 0.212528
v 2.167147 -0.174471 -0.092381
v 2.186345 -0.010777 0.140060
v 1.728106 0.081976 0.353829
v 1.680076 -0.327539 -0.227670
v 2.270418 -0.060622 -0.006435
v 1.990128 -0.239032 -0.154355
v 2.024912 0.220657 0.001743
v 1.339771 -0.125780 0.365315
v 1.310085 -0.378871 0.005927
v 2.175644 -0.006515 -0.144651
v 1.361030 0.294399 0.234552
v 1.731021 0.345731 0.000954
v 1.313000 -0.115116 -0.346948
v 1.701335 0.092640 -0.358433
v 2.004643 0.047853 -0.243636
v 1.102675 0.009581 0.019539
v 1.344485 0.300989 -0.205647
v 2.997558 -0.139867 0.067819
v 3.077502 -0.109053 0.038770
v 3.007530 -0.008075 0.112573
v 2.856165 -0.181893 0.098588
v 3.074434 -0.107830 -0.042854
v 3.083340 -0.031896 0.064971
v 2.870770 0.011131 0.164135
v 2.848490 -0.178836 -0.105612
v 3.122340 -0.055018 -0.002985
v 2.992318 -0.137779 -0.071603
v 3.008454 0.075463 0.000809
v 2.690629 -0.085243 0.169463
v 2.676857 -0.202648 0.002750
v 3.078376 -0.029918 -0.067101
v 2.700490 0.109670 0.108805
v 2.872123 0.133482 0.000443
v 2.678210 -0.080297 -0.160943
v 2.858352 0.016078 -0.166271
v 2.999051 -0.004698 -0.113018
v 2.580644 -0.022452 0.009064
v 2.692815 0.112728 -0.095396
vn 0.735200 -0.676500 -0.043600
vn 0.779400 -0.216900 0.587700
vn 0.298200 -0.953900 -0.033300
vn 0.734300 -0.183100 -0.653700
vn 0.332600 -0.350700 0.875400
vn 0.695400 0.693400 0.188900
vn 0.293300 -0.955700 -0.025300
vn 0.321400 -0.296200 -0.899400
vn 0.319100 -0.299600 -0.899100
vn 0.688900 0.694100 -0.208800
vn 0.315500 -0.326400 0.891000
vn 0.377500 0.688600 0.619100
vn 0.125300 -0.991900 -0.019600
vn 0.132900 -0.300600 -0.944400
vn 0.368500 0.695300 -0.617000
vn 0.203100 -0.328600 0.922400
vn 0.246600 0.762200 0.598500
vn -0.215400 -0.789900 0.574100
vn -0.258800 -0.772700 -0.579700
vn -0.203100 0.328600 -0.922400
vn 0.211100 0.786900 -0.579900
vn -0.132900 0.300600 0.944400
vn -0.006700 0.999900 0.015200
vn -0.810000 -0.445800 0.380900
vn -0.836800 -0.435200 -0.332200
vn -0.802400 0.245400 -0.544000
vn -0.759000 0.228200 0.609800
vn -0.754300 0.655400 0.038200
vn 0.429900 -0.319300 0.844500
vn 0.292800 -0.327200 0.898400
vn 0.350900 -0.936000 -0.027200
vn 0.279800 -0.959700 -0.024900
vn 0.754300 -0.655400 -0.038200
vn 0.532400 0.675900 0.509600
vn 0.802400 -0.245400 0.544000
vn 0.320800 0.757400 0.568700
vn 0.759000 -0.228200 -0.609800
vn 0.408700 -0.290000 -0.865400
vn 0.740000 0.639900 0.207000
vn 0.299300 -0.297300 -0.906700
vn 0.726500 0.641300 -0.247100
vn 0.258800 0.772700 0.579700
vn 0.325100 0.760300 -0.562300
vn 0.517400 0.679000 -0.520900
vn -0.125300 0.991900 0.019600
vn 0.215400 0.789900 -0.574100
usemtl Material.002
s off
f 1//1 2//1 3//1
f 1//2 3//2 4//2
f 1//3 5//3 2//3
f 2//4 6//4 3//4
f 7//5 1//5 4//5
f 4//6 3//6 8//6
f 5//7 1//7 7//7
f 5//8 9//8 2//8
f 2//9 9//9 6//9
f 3//10 6//10 8//10
f 7//11 4//11 10//11
f 10//12 4//12 8//12
f 7//13 11//13 5//13
f 5//14 12//14 9//14
f 9//15 8//15 6//15
f 13//16 7//16 10//16
f 14//17 10//17 8//17
f 11//18 7//18 13//18
f 11//19 12//19 5//19
f 12//20 15//20 9//20
f 9//21 15//21 8//21
f 13//22 10//22 14//22
f 15//23 14//23 8//23
f 11//24 13//24 16//24
f 11//25 16//25 12//25
f 12//26 16//26 15//26
f 16//27 13//27 14//27
f 16//28 14//28 15//28
f 17//29 18//29 19//29
f 20//30 17//30 19//30
f 18//31 17//31 21//31
f 19//29 18//29 22//29
f 20//30 19//30 23//30
f 24//32 17//32 20//32
f 18//33 21//33 25//33
f 17//31 26//31 21//31
f 19//34 22//34 27//34
f 18//35 25//35 22//35
f 28//16 20//16 23//16
f 23//36 19//36 27//36
f 20//13 29//13 24//13
f 17//32 24//32 26//32
f 21//37 30//37 25//37
f 21//38 26//38 30//38
f 22//39 25//39 27//39
f 28//22 23//22 31//22
f 29//18 20//18 28//18
f 32//36 23//36 27//36
f 29//19 33//19 24//19
f 24//40 34//40 26//40
f 25//41 30//41 27//41
f 26//38 35//38 30//38
f 36//27 28//27 31//27
f 31//42 23//42 32//42
f 29//24 28//24 36//24
f 35//43 32//43 27//43
f 29//25 36//25 33//25
f 24//14 33//14 34//14
f 26//40 34//40 35//40
f 30//44 35//44 27//44
f 36//28 31//28 37//28
f 37//45 31//45 32//45
f 34//43 32//43 35//43
f 33//26 36//26 37//26
f 33//20 37//20 34//20
f 34//46 37//46 32//46
f 38//29 39//29 40//29
f 41//30 38//30 40//30
f 39//31 38//31 42//31
f 40//29 39//29 43//29
f 41//30 40//30 44//30
f 45//32 38//32 41//32
f 39//33 42//33 46//33
f 38//31 47//31 42//31
f 40//34 43//34 48//34
f 39//35 46//35 43//35
f 49//16 41//16 44//16
f 44//36 40//36 48//36
f 41//13 50//13 45//13
f 38//32 45//32 47//32
f 42//37 51//37 46//37
f 42//38 47//38 51//38
f 43//39 46//39 48//39
f 49//22 44//22 52//22
f 50//18 41//18 49//18
f 53//36 44//36 48//36
f 50//19 54//19 45//19
f 45//40 55//40 47//40
f 46//41 51//41 48//41
f 47//38 56//38 51//38
f 57//27 49//27 52//27
f 52//42 44//42 53//42
f 50//24 49//24 57//24
f 56//43 53//43 48//43
f 50//25 57//25 54//25
f 45//14 54//14 55//14
f 47//40 55//40 56//40
f 51//44 56//44 48//44
f 57//28 52//28 58//28
f 58//45 52//45 53//45
f 55//43 53//43 56//43
f 54//26 57//26 58//26
f 54//20 58//20 55//20
f 55//46 58//46 53//46
