# Blender v2.75 (sub 0) OBJ File: 'Cloud6.blend'
# www.blender.org
mtllib Cloud6.mtl
o Cube_Cube.001
v -0.507436 -0.870797 1.235409
v 0.415074 -0.764016 1.728485
v -0.436586 -0.266767 2.093125
v -1.002440 0.056286 1.267894
v 0.379427 -0.749817 0.780069
v 0.150772 -0.779478 0.819843
v 0.490215 0.229064 2.065714
v -0.756429 -0.089569 0.839225
v -0.700834 -0.313165 0.992093
v -0.616532 -0.471053 0.986561
v -0.504353 -0.591935 0.862323
v -0.385849 0.736035 1.781046
v 0.578577 -1.058914 0.626112
v 0.532565 -0.575230 0.808548
v 0.992178 -0.068539 1.191056
v 0.084852 -0.770648 0.837502
v -0.528289 0.627693 0.826341
v -0.557145 0.567105 0.841567
v -1.390497 0.080571 -0.013696
v -0.533987 1.024812 0.699125
v -0.702885 -1.207243 -0.058821
v -0.422645 0.750691 0.802054
v 0.763983 0.061740 0.858261
v 0.629953 -0.379912 0.856687
v 0.497174 0.858544 1.223541
v -0.581613 1.043782 -0.567980
v -0.707622 0.897072 -0.539011
v -0.770346 0.827924 -0.591212
v -1.057129 -0.117076 -0.594581
v -1.000537 -0.344682 -0.438971
v -0.804908 -0.711071 -0.451809
v -0.698665 -0.825557 -0.569474
v 0.163454 -1.087048 -0.605792
v 0.257298 -1.076186 -0.555633
v 0.532361 -1.040505 -0.603480
v -0.260760 0.770813 0.818430
v 1.380234 -0.092824 -0.120432
v 0.716225 0.300853 1.036588
v 0.683417 0.362299 1.038741
v 0.465266 0.586514 0.837261
v 0.692622 1.194989 -0.075307
v -0.225925 1.088668 -0.566265
v -0.272704 1.082178 -0.536730
v 0.793348 -0.742964 -0.554944
v 0.823923 -0.706119 -0.583417
v -0.042982 0.740672 0.858672
v 0.649023 0.823285 -0.603123
v 1.064709 0.087313 -0.580588
v 1.015249 0.334945 -0.395908
v 0.882796 0.583014 -0.387216
v -0.903644 -1.552831 -1.647099
v 0.746522 -1.361824 -0.765096
v -1.789097 0.105516 -1.588991
v 0.675889 -1.333689 -2.644352
v -0.686151 1.321436 -0.671076
v -0.891196 -0.426831 -3.153562
v 1.778835 -0.117769 -1.726437
v -0.756785 1.349571 -2.550333
v 0.766646 0.460102 -3.202594
v 0.893382 1.540577 -1.668329
vn -0.215400 -0.789900 0.574100
vn -0.810000 -0.445800 0.380900
vn 0.125300 -0.991900 -0.019600
vn 0.203100 -0.328600 0.922400
vn -0.836800 -0.435200 -0.332200
vn -0.759000 0.228200 0.609800
vn 0.754300 -0.655400 -0.038200
vn -0.258800 -0.772700 -0.579700
vn -0.132900 0.300600 0.944400
vn 0.802400 -0.245400 0.544000
vn -0.802400 0.245400 -0.544000
vn -0.754300 0.655400 0.038200
vn 0.759000 -0.228200 -0.609800
vn 0.258800 0.772700 0.579700
vn 0.836800 0.435200 0.332200
vn -0.125300 0.991900 0.019600
vn 0.810000 0.445800 -0.380900
vn 0.215400 0.789900 -0.574100
vn 0.132900 -0.300600 -0.944400
vn -0.203100 0.328600 -0.922400
usemtl Material.005
s off
f 1//1 2//1 3//1
f 1//2 3//2 4//2
f 5//3 2//3 1//3 6//3
f 3//4 2//4 7//4
f 1//5 4//5 8//5 9//5 10//5 11//5
f 4//6 3//6 12//6
f 16//4 13//4 24//4 14//4 5//4 6//4
f 14//7 15//7 2//7 5//7
f 1//8 11//8 16//8 6//8
f 3//9 7//9 12//9
f 2//10 15//10 7//10
f 8//11 4//11 17//11 18//11
f 19//6 9//6 8//6 18//6 20//6
f 9//2 19//2 21//2 10//2
f 21//1 13//1 16//1 11//1 10//1
f 17//12 4//12 12//12 22//12
f 23//13 15//13 14//13 24//13
f 12//14 7//14 25//14
f 7//15 15//15 25//15
f 17//9 22//9 36//9 46//9 20//9 18//9
f 19//12 20//12 26//12 27//12 28//12
f 21//5 19//5 29//5 30//5 31//5 32//5
f 13//3 21//3 33//3 34//3 35//3
f 22//16 12//16 25//16 36//16
f 13//10 37//10 38//10 23//10 24//10
f 15//17 23//17 38//17 39//17 40//17 25//17
f 29//11 19//11 28//11
f 26//16 20//16 41//16 42//16 43//16
f 33//8 21//8 32//8
f 13//7 35//7 44//7 45//7 37//7
f 36//18 25//18 40//18 46//18
f 38//15 37//15 41//15 39//15
f 20//14 46//14 40//14 39//14 41//14
f 42//18 41//18 47//18
f 48//13 37//13 45//13
f 37//17 48//17 49//17 50//17 47//17 41//17
f 51//1 52//1 34//1 33//1 32//1 31//1
f 30//2 53//2 51//2 31//2
f 52//3 51//3 54//3
f 34//4 52//4 44//4 35//4
f 53//6 30//6 29//6 28//6 27//6 55//6
f 51//5 53//5 56//5
f 52//7 54//7 57//7
f 51//8 56//8 54//8
f 52//10 57//10 49//10 48//10 45//10 44//10
f 53//12 55//12 58//12
f 43//9 55//9 27//9 26//9
f 56//11 53//11 58//11
f 54//13 59//13 57//13
f 54//19 56//19 59//19
f 49//15 57//15 60//15 50//15
f 58//16 55//16 60//16
f 55//14 43//14 42//14 47//14 50//14 60//14
f 56//20 58//20 59//20
f 57//17 59//17 60//17
f 59//18 58//18 60//18
